<svg version="1.1" viewBox="0.0 0.0 418.8897637795276 385.3044619422572" fill="none" stroke="none" stroke-linecap="square" stroke-miterlimit="10" xmlns:xlink="http://www.w3.org/1999/xlink" xmlns="http://www.w3.org/2000/svg"><clipPath id="p.0"><path d="m0 0l418.88977 0l0 385.30447l-418.88977 0l0 -385.30447z" clip-rule="nonzero"/></clipPath><g clip-path="url(#p.0)"><path fill="#000000" fill-opacity="0.0" d="m0 0l418.88977 0l0 385.30447l-418.88977 0z" fill-rule="evenodd"/><path fill="#000000" fill-opacity="0.0" d="m102.97113 19.26903l208.09448 0l0 59.27559l-208.09448 0z" fill-rule="evenodd"/><path fill="#323569" d="m133.84613 66.66903l-3.546875 -9.078129l-11.453125 0l-3.515625 9.078129l-3.359375 0l11.296875 -28.671879l2.78125 0l11.234375 28.671879l-3.4375 0zm-4.59375 -12.078129l-3.3125 -8.84375q-0.640625 -1.671875 -1.328125 -4.125q-0.4375 1.875 -1.234375 4.125l-3.359375 8.84375l9.234375 0zm28.078125 4.484375q0 3.765625 -2.734375 5.875004q-2.734375 2.109375 -7.421875 2.109375q-5.078125 0 -7.8125 -1.3125l0 -3.2031288q1.75 0.75 3.8125 1.1875q2.078125 0.4218788 4.109375 0.4218788q3.328125 0 5.0 -1.2656288q1.6875 -1.265625 1.6875 -3.5q0 -1.484375 -0.609375 -2.4375q-0.59375 -0.953125 -1.984375 -1.75q-1.390625 -0.796875 -4.25 -1.8125q-3.984375 -1.421875 -5.703125 -3.375q-1.703125 -1.953125 -1.703125 -5.109375q0 -3.296875 2.484375 -5.25q2.484375 -1.953125 6.5625 -1.953125q4.265625 0 7.828125 1.5625l-1.03125 2.890625q-3.53125 -1.484375 -6.875 -1.484375q-2.640625 0 -4.125 1.140625q-1.484375 1.125 -1.484375 3.140625q0 1.484375 0.546875 2.4375q0.546875 0.9375 1.84375 1.734375q1.3125 0.78125 3.984375 1.75q4.484375 1.59375 6.171875 3.4375q1.703125 1.828125 1.703125 4.765625zm23.9375 -12.640625q0 4.328125 -2.96875 6.671875q-2.953125 2.328125 -8.453125 2.328125l-3.359375 0l0 11.234379l-3.328125 0l0 -28.562504l7.40625 0q10.703125 0 10.703125 8.328125zm-14.78125 6.15625l2.984375 0q4.421875 0 6.390625 -1.421875q1.96875 -1.4375 1.96875 -4.578125q0 -2.828125 -1.859375 -4.21875q-1.84375 -1.390625 -5.78125 -1.390625l-3.703125 0l0 11.609375zm19.800781 12.000004q0 -1.2968788 0.59375 -1.9687538q0.59375 -0.6875 1.71875 -0.6875q1.125 0 1.75 0.6875q0.640625 0.671875 0.640625 1.9687538q0 1.28125 -0.640625 1.96875q-0.640625 0.671875 -1.75 0.671875q-1.0 0 -1.65625 -0.609375q-0.65625 -0.625 -0.65625 -2.03125zm33.910156 2.078125l-3.796875 0l-15.59375 -23.968754l-0.15625 0q0.3125 4.21875 0.3125 7.734375l0 16.234379l-3.078125 0l0 -28.562504l3.75 0l15.578125 23.875l0.15625 0q-0.046875 -0.53125 -0.1875 -3.390625q-0.125 -2.859375 -0.09375 -4.09375l0 -16.390625l3.109375 0l0 28.562504zm23.765625 0l-15.921875 0l0 -28.562504l15.921875 0l0 2.953125l-12.59375 0l0 9.203125l11.828125 0l0 2.921875l-11.828125 0l0 10.515625l12.59375 0l0 2.9687538zm15.121094 0l-3.328125 0l0 -25.609379l-9.03125 0l0 -2.953125l21.40625 0l0 2.953125l-9.046875 0l0 25.609379z" fill-rule="nonzero"/><path fill="#000000" fill-opacity="0.0" d="m196.2126 93.985565l198.83464 0l0 159.93701l-198.83464 0z" fill-rule="evenodd"/><path fill="#323569" d="m247.4626 156.11557q4.5625 0 8.1875 0.75l-1.4375 9.625q-4.25 -0.9375 -7.5 -0.9375q-8.3125 0 -14.21875 6.75q-5.90625 6.75 -5.90625 16.8125l0 36.75l-10.375 0l0 -68.5l8.5625 0l1.1875 12.6875l0.5 0q3.8125 -6.6875 9.1875 -10.3125q5.375 -3.625 11.8125 -3.625zm49.937485 71.0q-15.1875 0 -23.96875 -9.25q-8.78125 -9.25 -8.78125 -25.6875q0 -16.5625 8.15625 -26.3125q8.15625 -9.75 21.90625 -9.75q12.875 0 20.375 8.46875q7.5 8.46875 7.5 22.34375l0 6.5625l-47.1875 0q0.3125 12.0625 6.09375 18.3125q5.78125 6.25 16.28125 6.25q11.0625 0 21.875 -4.625l0 9.25q-5.5 2.375 -10.40625 3.40625q-4.90625 1.03125 -11.84375 1.03125zm-2.8125 -62.3125q-8.25 0 -13.15625 5.375q-4.90625 5.375 -5.78125 14.875l35.8125 0q0 -9.8125 -4.375 -15.03125q-4.375 -5.21875 -12.5 -5.21875z" fill-rule="nonzero"/><path fill="#000000" fill-opacity="0.0" d="m23.839895 40.946194l283.43307 0l0 234.01575l-283.43307 0z" fill-rule="evenodd"/><path fill="#323569" d="m141.07426 90.50244q33.609375 0 59.28125 21.359375q2.171875 1.6875 2.171875 4.796875q0 2.890625 -1.921875 5.171875q-1.921875 2.28125 -5.28125 2.28125q-2.640625 0 -6.0 -2.890625q-18.25 -16.3125 -48.25 -16.3125q-21.109367 0 -39.468742 11.28125q-18.359375 11.28125 -29.171875 30.125q-10.796879 18.828125 -10.796879 40.1875q0 22.078125 10.671879 40.921875q10.6875 18.84375 29.046875 29.890625q18.359375 11.03125 39.718742 11.03125q28.328125 0 49.6875 -17.515625q1.671875 -1.203125 3.59375 -1.203125q2.890625 0 5.15625 2.15625q2.28125 2.15625 2.28125 5.28125q0 3.125 -1.671875 5.046875q-20.640625 20.640625 -59.046875 20.640625q-25.187492 0 -46.796867 -13.078125q-21.59375 -13.09375 -34.312504 -35.28125q-12.71875 -22.203125 -12.71875 -47.890625q0 -25.671875 12.59375 -47.75q12.593754 -22.09375 34.07813 -35.171875q21.484375 -13.078125 47.156242 -13.078125z" fill-rule="nonzero"/><path fill="#01bfe1" d="m115.74541 188.93307l0 0c0 -16.3685 12.437317 -29.637802 27.779526 -29.637802l0 0c7.367584 0 14.433426 3.1225433 19.643097 8.68071c5.209671 5.5581665 8.136429 13.096649 8.136429 20.957092l0 0c0 16.3685 -12.437317 29.637787 -27.779526 29.637787l0 0c-15.342209 0 -27.779526 -13.269287 -27.779526 -29.637787z" fill-rule="evenodd"/><path fill="#000000" fill-opacity="0.0" d="m138.11156 303.95532l204.94487 -77.102356l23.40158 62.078735l-204.94489 77.102356z" fill-rule="evenodd"/><path stroke="#ff0000" stroke-width="3.0" stroke-linejoin="round" stroke-linecap="butt" d="m138.11156 303.95532l204.94487 -77.102356l23.40158 62.078735l-204.94489 77.102356z" fill-rule="evenodd"/><path fill="#ff0000" d="m184.04454 314.66428q3.6999512 -1.3919373 6.6251526 -0.05508423q2.9252014 1.336853 4.4904633 5.489105l4.304489 11.418762l-2.6616364 1.0013123l-4.205261 -11.155548q-1.1574249 -3.070343 -3.240738 -4.1229553q-2.0833282 -1.0525818 -4.7888184 -0.034729004q-3.071106 1.155365 -4.1095276 3.716278q-1.0439453 2.5462646 0.20716858 5.8651733l3.896637 10.3368225l-2.6616364 1.0013123l-4.205261 -11.155548q-1.1574249 -3.070343 -3.240738 -4.1229553q-2.0833282 -1.0525818 -4.8180695 -0.023742676q-3.0418549 1.1443787 -4.1095276 3.716278q-1.0585632 2.5517883 0.19255066 5.870697l3.8966217 10.3368225l-2.661621 1.0013123l-7.423996 -19.69403l2.5592651 -0.9628296l1.3558197 3.5966797q0.3604126 -2.1889648 1.868576 -3.8581543q1.5026398 -1.6838379 3.9449005 -2.6026306q2.4715118 -0.9298096 4.6817474 -0.5593567q2.2102509 0.3704834 3.873932 2.0817566q0.36380005 -2.3571777 1.9832153 -4.2184753q1.62854 -1.8814392 4.246292 -2.866272zm15.208206 -5.554535l2.661621 -1.0013123l7.4239807 19.69403l-2.661621 1.0013428l-7.4239807 -19.694061zm-0.2603302 -4.81015q-0.81895447 0.30810547 -1.5987396 -0.03289795q-0.77067566 -0.36114502 -1.0682983 -1.1506653q-0.28108215 -0.7456665 0.065200806 -1.510315q0.3554077 -0.7847595 1.1743622 -1.092865q0.8189697 -0.30810547 1.5841217 0.03842163q0.77427673 0.3263855 1.0553589 1.0720215q0.3086548 0.8187866 -0.04675293 1.6035461q-0.34628296 0.76464844 -1.1652527 1.0727539zm28.567734 -5.839386l6.520096 17.296265q1.8904419 5.0148926 0.34295654 8.351593q-1.5328674 3.3312378 -6.475876 5.1908264q-2.7347565 1.0288696 -5.494766 1.1490173q-2.7453918 0.11468506 -4.815567 -0.7258301l0.5848541 -2.5238342q1.898056 0.73831177 4.195389 0.675354q2.3174744 -0.053833008 4.5696106 -0.90112305q3.7438354 -1.4084473 4.8428802 -3.8085327q1.0990448 -2.4000854 -0.28433228 -6.0698547l-0.94247437 -2.5001526q-0.5229645 2.3336182 -2.1572266 4.066925q-1.6397705 1.7187195 -4.0674133 2.632019q-2.7786255 1.0453491 -5.502838 0.68463135q-2.7297363 -0.3753662 -4.8378906 -2.0696716q-2.1136627 -1.7089539 -3.1608582 -4.4868774q-1.0416718 -2.7633057 -0.5704346 -5.4113464q0.46572876 -2.6626282 2.2659302 -4.7088013q1.8002014 -2.046173 4.608078 -3.102539q2.500763 -0.9407959 4.8992004 -0.69122314q2.413086 0.24407959 4.3635254 1.6972351l-1.427475 -3.7867737l2.544632 -0.9573059zm-3.8059845 20.37973q2.1205292 -0.79776 3.4989777 -2.368103q1.3784332 -1.5703125 1.711731 -3.5654297q0.34240723 -2.0152588 -0.45124817 -4.120636q-0.788147 -2.0907593 -2.3651276 -3.350525q-1.5678711 -1.2799072 -3.6206207 -1.5426941q-2.0436401 -0.28286743 -4.2080536 0.5314026q-2.135147 0.8032532 -3.5044708 2.3534546q-1.3602295 1.5300598 -1.7026367 3.5453186q-0.33328247 1.9951477 0.4548645 4.085907q0.7936554 2.1053772 2.367035 3.3998718q1.582489 1.2744141 3.6261292 1.557312q2.0582733 0.27737427 4.1934204 -0.5258789zm15.266357 -20.283997q0.18640137 -2.3405151 1.6487732 -4.042572q1.4769897 -1.70755 4.211731 -2.7363892l0.97554016 2.58786l-0.66000366 0.19821167q-3.100357 1.1663818 -4.147888 3.747406q-1.0384216 2.560913 0.26228333 6.011383l3.780899 10.029785l-2.6616364 1.0013428l-7.4239807 -19.694061l2.5592499 -0.9627991l1.4550323 3.8598328zm17.831375 -11.282532q3.8608093 -1.4524841 6.65036 -0.29830933q2.7895508 1.1541748 4.2115173 4.9263l4.602112 12.208282l-2.5446472 0.9573059l-1.1574097 -3.070343q-0.32800293 1.8762817 -1.7431335 3.3936157q-1.4151001 1.517334 -3.8134766 2.4196472q-3.2904968 1.237915 -5.8252563 0.40524292q-2.540268 -0.84729004 -3.515808 -3.4351501q-0.9424591 -2.5001526 0.2922516 -4.7175293q1.2347107 -2.2174072 5.197891 -3.7084045l6.2592163 -2.3547668l-0.4519348 -1.1989136q-0.9590149 -2.5439758 -2.8937378 -3.3352966q-1.920105 -0.79678345 -4.6402283 0.22653198q-1.8719177 0.70425415 -3.3661041 1.9675293q-1.4941864 1.2632751 -2.3092651 2.821991l-1.948761 -1.537262q1.0121765 -1.8331909 2.8444214 -3.307129q1.8413544 -1.4940491 4.151993 -2.3633423zm5.8211365 18.27707q2.2521362 -0.84729004 3.475006 -2.4759216q1.2228699 -1.6286621 1.2795715 -3.8703003l-1.2180481 -3.2311707l-6.1714783 2.3217773q-5.0599976 1.9036255 -3.73172 5.4272156q0.6503601 1.7252197 2.3266907 2.2297668q1.6854553 0.48443604 4.039978 -0.4013672zm26.789764 -9.260559q-0.5069275 0.95861816 -1.4805908 1.742279q-0.9645386 0.7635498 -2.1637268 1.2146912q-2.7640076 1.0398254 -4.832489 0.11520386q-2.0593567 -0.94473267 -3.0899963 -3.6788025l-4.4863586 -11.901215l-3.5098572 1.3204346l-0.8487549 -2.251587l3.5098267 -1.3204346l-1.6203918 -4.2984924l2.6616516 -1.0013123l1.6203613 4.298462l5.9959717 -2.2557373l0.8487854 2.251587l-5.9959717 2.2557373l4.431244 11.755035q0.66137695 1.7544861 1.8860474 2.345459q1.2247009 0.5910034 2.8772278 -0.030700684q0.8189697 -0.30810547 1.4802246 -0.85736084q0.6758728 -0.55477905 1.0643616 -1.251831l1.6524353 1.548584zm-2.155365 -20.307251l2.661621 -1.0013123l7.4239807 19.69403l-2.661621 1.0013428l-7.4239807 -19.694061zm-0.26034546 -4.81015q-0.8189392 0.30810547 -1.5987244 -0.03289795q-0.7706909 -0.36114502 -1.0682983 -1.1506653q-0.2810974 -0.745636 0.06518555 -1.510315q0.3554077 -0.7847595 1.1743774 -1.092865q0.8189697 -0.30810547 1.5841064 0.03842163q0.774292 0.3263855 1.0553589 1.072052q0.3086548 0.8187561 -0.04675293 1.6035156q-0.34628296 0.76464844 -1.1652527 1.0727539zm25.884857 17.873993q-2.8517456 1.072876 -5.618164 0.64453125q-2.7719116 -0.44296265 -4.947876 -2.2286072q-2.161377 -1.7911682 -3.2471313 -4.6714478q-1.0857544 -2.8802795 -0.64398193 -5.650757q0.4508667 -2.790619 2.2527466 -4.9208984q1.8019104 -2.1302795 4.653656 -3.203125q2.8370972 -1.0673523 5.597992 -0.653656q2.7755432 0.40823364 4.927765 2.219513q2.146759 1.7966614 3.2325134 4.676941q1.0857544 2.8802795 0.65859985 5.6452637q-0.42712402 2.7649841 -2.2326355 4.9299927q-1.7963867 2.1448975 -4.633484 3.2122498zm-0.8873596 -2.3539124q2.091278 -0.7867737 3.4002075 -2.3643188q1.3034058 -1.5921631 1.5779724 -3.698761q0.2690735 -2.1212158 -0.57418823 -4.358185q-0.8487549 -2.251587 -2.446106 -3.6539612q-1.6028442 -1.4169617 -3.6282654 -1.7401123q-2.0254211 -0.32315063 -4.116699 0.46362305q-2.105896 0.79226685 -3.4148254 2.369812q-1.294281 1.572052 -1.5925903 3.7042847q-0.2892151 2.112091 0.5595398 4.363678q0.8432617 2.236969 2.4607544 3.6484375q1.6265869 1.3913574 3.6428833 1.7346191q2.0254211 0.32315063 4.131317 -0.4691162zm18.799255 -27.255707q3.6999512 -1.3919678 6.694702 -0.04788208q3.0038147 1.3239746 4.5525513 5.432373l4.304474 11.418762l-2.6470032 0.9958191l-4.205261 -11.155579q-1.1574097 -3.070343 -3.2992249 -4.1009216q-2.1418152 -1.0305786 -4.993561 0.042266846q-3.1734924 1.1939087 -4.31427 3.7933044q-1.1463013 2.5848083 0.10479736 5.903717l3.896637 10.336792l-2.661621 1.0013428l-7.424011 -19.694061l2.5592651 -0.9627991l1.3723755 3.6405334q0.40426636 -2.2054749 1.945282 -3.9204102q1.5556335 -1.720459 4.114868 -2.683258z" fill-rule="nonzero"/></g></svg>